<svg width="35" height="27" viewBox="0 0 35 27" fill="none" xmlns="http://www.w3.org/2000/svg">
<path d="M31.0472 12.2427L31.0472 11.9927L30.7972 11.9927L1.25488 11.9927L1.00488 11.9927L1.00488 12.2427L1.00488 14.2122L1.00488 14.4622L1.25488 14.4622L30.7972 14.4622L31.0472 14.4622L31.0472 14.2122L31.0472 12.2427Z" fill="#F4F4F4" stroke="#F4F4F4" stroke-width="0.5"/>
<path d="M33.8895 13.6605L34.0663 13.4838L33.8895 13.307L32.1909 11.6084L32.0142 11.4316L31.8374 11.6084L19.0979 24.3478L18.9212 24.5246L19.0979 24.7014L20.7965 26.4L20.9733 26.5768L21.1501 26.4L33.8895 13.6605Z" fill="#F4F4F4" stroke="#F4F4F4" stroke-width="0.5"/>
<path d="M33.8884 13.6604L34.0652 13.4836L33.8884 13.3068L21.1489 0.567364L20.9722 0.390587L20.7954 0.567364L19.0968 2.26596L18.92 2.44273L19.0968 2.61951L31.8363 15.359L32.013 15.5357L32.1898 15.359L33.8884 13.6604Z" fill="#F4F4F4" stroke="#F4F4F4" stroke-width="0.5"/>
</svg>
